<svg width="32" height="32" viewBox="0 0 32 32" fill="none" xmlns="http://www.w3.org/2000/svg"><path fill-rule="evenodd" clip-rule="evenodd" d="M15.4252 7.21967C15.7181 6.92678 16.1929 6.92678 16.4858 7.21967L24.8544 15.6465C24.9515 15.7442 24.9999 15.872 24.9996 15.9998C25 16.1276 24.9516 16.2557 24.8544 16.3535L16.4858 24.7803C16.1929 25.0732 15.7181 25.0732 15.4252 24.7803C15.1323 24.4874 15.1323 24.0126 15.4252 23.7197L22.4433 16.75H7.75049C7.33627 16.75 7.00049 16.4142 7.00049 16C7.00049 15.5858 7.33627 15.25 7.75049 15.25H22.4433L15.4252 8.28033C15.1323 7.98744 15.1323 7.51256 15.4252 7.21967Z" fill="black"/></svg>
