
<svg width="32" height="32" viewBox="0 0 32 32" fill="none" xmlns="http://www.w3.org/2000/svg"><path fill-rule="evenodd" clip-rule="evenodd" d="M16.5748 24.7803C16.2819 25.0732 15.8071 25.0732 15.5142 24.7803L7.14562 16.3535C7.04854 16.2558 7.00015 16.128 7.0004 16.0002C7.00002 15.8724 7.04841 15.7443 7.14562 15.6464L15.5142 7.21967C15.8071 6.92677 16.2819 6.92677 16.5748 7.21967C16.8677 7.51256 16.8677 7.98744 16.5748 8.28033L9.55669 15.25L24.2495 15.25C24.6637 15.25 24.9995 15.5858 24.9995 16C24.9995 16.4142 24.6637 16.75 24.2495 16.75L9.55669 16.75L16.5748 23.7197C16.8677 24.0126 16.8677 24.4874 16.5748 24.7803Z" fill="black"/></svg>
